<svg xmlns="http://www.w3.org/2000/svg" xmlns:xlink="http://www.w3.org/1999/xlink" width="1366" zoomAndPan="magnify" viewBox="0 0 1024.5 576" height="768" preserveAspectRatio="xMidYMid meet" version="1.0"><defs><clipPath id="78ec9e317f"><path d="M 0 0.140625 L 1024 0.140625 L 1024 575.859375 L 0 575.859375 Z M 0 0.140625 " clip-rule="nonzero"/></clipPath><clipPath id="ccb7b694cc"><path d="M 925 206 L 1024 206 L 1024 575.859375 L 925 575.859375 Z M 925 206 " clip-rule="nonzero"/></clipPath><clipPath id="d85e88e1b5"><path d="M 925.113281 192.40625 L 1309.707031 306.8125 L 1224.171875 594.359375 L 839.578125 479.953125 Z M 925.113281 192.40625 " clip-rule="nonzero"/></clipPath><clipPath id="59a53c58f7"><path d="M 925.113281 192.40625 L 1309.707031 306.8125 L 1224.171875 594.359375 L 839.578125 479.953125 Z M 925.113281 192.40625 " clip-rule="nonzero"/></clipPath><clipPath id="b4161011d6"><path d="M 950 493 L 1024 493 L 1024 575.859375 L 950 575.859375 Z M 950 493 " clip-rule="nonzero"/></clipPath><clipPath id="17fdf794a6"><path d="M 803 0.140625 L 1024 0.140625 L 1024 172 L 803 172 Z M 803 0.140625 " clip-rule="nonzero"/></clipPath><clipPath id="6ec65b0c31"><path d="M 787.992188 167.226562 L 972.191406 -189.246094 L 1238.710938 -51.527344 L 1054.511719 304.945312 Z M 787.992188 167.226562 " clip-rule="nonzero"/></clipPath><clipPath id="bfc227a8c4"><path d="M 787.992188 167.226562 L 972.191406 -189.246094 L 1238.710938 -51.527344 L 1054.511719 304.945312 Z M 787.992188 167.226562 " clip-rule="nonzero"/></clipPath></defs><g clip-path="url(#78ec9e317f)"><path fill="#ffffff" d="M 0 0.140625 L 1024.5 0.140625 L 1024.5 576.140625 L 0 576.140625 Z M 0 0.140625 " fill-opacity="1" fill-rule="nonzero"/><path fill="#f2b708" d="M 0 0.140625 L 1024.5 0.140625 L 1024.5 576.140625 L 0 576.140625 Z M 0 0.140625 " fill-opacity="1" fill-rule="nonzero"/></g><g clip-path="url(#ccb7b694cc)"><g clip-path="url(#d85e88e1b5)"><g clip-path="url(#59a53c58f7)"><path fill="#ea5045" d="M 938.472656 233.632812 C 959.152344 235.636719 978.480469 246.59375 990.878906 263.355469 C 1002.878906 279.542969 1005.480469 299.628906 1007.285156 319.132812 C 1010.800781 357.398438 1015.878906 394.355469 1051.746094 415.953125 C 1082.542969 434.5 1133.582031 436.722656 1144.339844 477.257812 C 1149.757812 497.695312 1151.0625 518.109375 1161.082031 537.195312 C 1170.734375 555.601562 1185.257812 570.707031 1202.644531 581.945312 C 1217.492188 591.539062 1231.972656 568.238281 1217.167969 558.6875 C 1198.363281 546.542969 1184.230469 528.492188 1178.324219 506.734375 C 1172.769531 486.371094 1172.667969 464.800781 1160.628906 446.628906 C 1137.25 411.320312 1091.605469 412.105469 1060.074219 388.621094 C 1027.761719 364.589844 1038.230469 315.175781 1028.890625 280.726562 C 1017.566406 239.109375 981.492188 210.324219 939.027344 206.191406 C 921.492188 204.492188 920.992188 231.925781 938.472656 233.632812 Z M 938.472656 233.632812 " fill-opacity="1" fill-rule="nonzero"/></g></g></g><path fill="#164194" d="M -166.945312 238.722656 C -146.550781 234.746094 -124.898438 239.738281 -108.234375 252.269531 C -92.121094 264.363281 -83.898438 282.875 -76.609375 301.054688 C -62.328125 336.730469 -46.925781 370.707031 -6.390625 381.179688 C 28.417969 390.175781 77.972656 377.753906 99.84375 413.539062 C 110.863281 431.582031 117.933594 450.777344 132.980469 466.214844 C 147.480469 481.105469 165.703125 491.445312 185.574219 497.257812 C 202.539062 502.222656 209.777344 475.757812 192.867188 470.824219 C 171.378906 464.542969 152.6875 451.269531 140.820312 432.101562 C 129.691406 414.167969 123.441406 393.519531 106.722656 379.535156 C 74.246094 352.359375 30.722656 366.125 -6.195312 352.605469 C -44.019531 338.785156 -48.074219 288.441406 -66.851562 258.085938 C -89.570312 221.421875 -132.355469 204.117188 -174.234375 212.261719 C -191.527344 215.636719 -184.183594 242.070312 -166.945312 238.722656 Z M -166.945312 238.722656 " fill-opacity="1" fill-rule="nonzero"/><path fill="#ea5045" d="M -249.875 93.445312 C -229.480469 89.46875 -207.832031 94.460938 -191.167969 106.992188 C -175.050781 119.085938 -166.828125 137.59375 -159.539062 155.777344 C -145.257812 191.453125 -129.855469 225.425781 -89.320312 235.902344 C -54.511719 244.898438 -4.957031 232.476562 16.914062 268.261719 C 27.929688 286.304688 35.003906 305.5 50.050781 320.9375 C 64.546875 335.828125 82.773438 346.167969 102.644531 351.980469 C 119.609375 356.941406 126.847656 330.480469 109.9375 325.546875 C 88.449219 319.265625 69.757812 305.992188 57.886719 286.824219 C 46.761719 268.890625 40.511719 248.242188 23.792969 234.257812 C -8.683594 207.082031 -52.207031 220.847656 -89.128906 207.328125 C -126.949219 193.507812 -131.007812 143.160156 -149.78125 112.804688 C -172.5 76.144531 -215.285156 58.839844 -257.164062 66.984375 C -274.457031 70.355469 -267.113281 96.792969 -249.875 93.445312 Z M -249.875 93.445312 " fill-opacity="1" fill-rule="nonzero"/><g clip-path="url(#b4161011d6)"><path fill="#f4e7db" d="M 968.140625 521.695312 C 988.53125 517.71875 1010.183594 522.707031 1026.847656 535.242188 C 1042.964844 547.332031 1051.1875 565.84375 1058.476562 584.023438 C 1072.757812 619.699219 1088.160156 653.675781 1128.695312 664.152344 C 1163.503906 673.144531 1213.058594 660.722656 1234.929688 696.507812 C 1245.945312 714.550781 1253.019531 733.746094 1268.066406 749.1875 C 1282.5625 764.078125 1300.789062 774.414062 1320.660156 780.226562 C 1337.625 785.191406 1344.859375 758.730469 1327.949219 753.792969 C 1306.464844 747.515625 1287.769531 734.242188 1275.902344 715.074219 C 1264.777344 697.140625 1258.527344 676.492188 1241.808594 662.503906 C 1209.328125 635.332031 1165.804688 649.097656 1128.886719 635.578125 C 1091.066406 621.757812 1087.007812 571.410156 1068.234375 541.054688 C 1045.511719 504.390625 1002.730469 487.085938 960.851562 495.230469 C 943.554688 498.605469 950.902344 525.039062 968.140625 521.695312 Z M 968.140625 521.695312 " fill-opacity="1" fill-rule="nonzero"/></g><g clip-path="url(#17fdf794a6)"><g clip-path="url(#6ec65b0c31)"><g clip-path="url(#bfc227a8c4)"><path fill="#164194" d="M 830.984375 161.800781 C 836.816406 141.859375 851.1875 124.914062 869.972656 115.863281 C 888.113281 107.097656 908.332031 108.289062 927.832031 110.160156 C 966.078125 113.851562 1003.335938 115.761719 1031.25 84.558594 C 1055.21875 57.765625 1066.933594 8.039062 1108.765625 5.035156 C 1129.851562 3.53125 1150.152344 6.0625 1170.773438 -0.21875 C 1190.660156 -6.265625 1208.210938 -17.710938 1222.496094 -32.695312 C 1234.695312 -45.488281 1214.507812 -64.066406 1202.359375 -51.308594 C 1186.917969 -35.101562 1166.542969 -24.585938 1144.066406 -22.84375 C 1123.027344 -21.191406 1101.8125 -25.117188 1081.714844 -16.683594 C 1042.664062 -0.304688 1034.910156 44.679688 1005.953125 71.273438 C 976.3125 98.527344 929.722656 79.019531 894.132812 81.765625 C 851.132812 85.117188 816.121094 115.183594 804.128906 156.128906 C 799.1875 173.042969 826.042969 178.652344 830.984375 161.800781 Z M 830.984375 161.800781 " fill-opacity="1" fill-rule="nonzero"/></g></g></g></svg>